<svg xmlns="http://www.w3.org/2000/svg" style="display: none">
  <symbol id="icon-search" viewBox="0 0 24 24">
    <circle cx="11" cy="11" r="7" />
    <line x1="21" y1="21" x2="16.65" y2="16.65" />
  </symbol>

  <symbol id="icon-eye" viewBox="0 0 24 24">
    <path d="M1 12s4-8 11-8 11 8 11 8-4 8-11 8-11-8-11-8z" />
    <circle cx="12" cy="12" r="3" />
  </symbol>

  <symbol id="icon-eye-off" viewBox="0 0 24 24">
    <path d="M17.94 17.94A10.94 10.94 0 0 1 12 20c-7 0-11-8-11-8a21.86 21.86 0 0 1 5.06-6.06M9.9 4.24A10.94 10.94 0 0 1 12 4c7 0 11 8 11 8a21.86 21.86 0 0 1-3.22 4.4M14.12 14.12a3 3 0 1 1-4.24-4.24" />
    <line x1="1" y1="1" x2="23" y2="23" />
  </symbol>

  <symbol id="icon-alert-circle" viewBox="0 0 24 24">
    <circle cx="12" cy="12" r="10" />
    <line x1="12" y1="8" x2="12" y2="13" />
    <line x1="12" y1="16" x2="12.01" y2="16" />
  </symbol>

  <symbol id="icon-bell" viewBox="0 0 24 24">
    <path d="M18 8a6 6 0 0 0-12 0c0 7-3 9-3 9h18s-3-2-3-9" />
    <path d="M13.73 21a2 2 0 0 1-3.46 0" />
  </symbol>

  <symbol id="icon-help-circle" viewBox="0 0 24 24">
    <circle cx="12" cy="12" r="10" />
    <path d="M9.09 9a3 3 0 0 1 5.83 1c0 2-3 2-3 4" />
    <line x1="12" y1="17" x2="12.01" y2="17" />
  </symbol>

  <symbol id="icon-logout" viewBox="0 0 24 24">
    <path d="M9 21H5a2 2 0 0 1-2-2V5a2 2 0 0 1 2-2h4" />
    <polyline points="16 17 21 12 16 7" />
    <line x1="21" y1="12" x2="9" y2="12" />
  </symbol>

  <symbol id="icon-dashboard" viewBox="0 0 24 24">
    <rect x="3" y="3" width="7" height="9" rx="1.5" />
    <rect x="14" y="3" width="7" height="5" rx="1.5" />
    <rect x="14" y="12" width="7" height="9" rx="1.5" />
    <rect x="3" y="16" width="7" height="5" rx="1.5" />
  </symbol>

  <symbol id="icon-portfolio" viewBox="0 0 24 24">
    <path d="M22 19a2 2 0 0 1-2 2H4a2 2 0 0 1-2-2V5a2 2 0 0 1 2-2h5l2 3h9a2 2 0 0 1 2 2z" />
  </symbol>

  <symbol id="icon-transactions" viewBox="0 0 24 24">
    <path d="M14 2H6a2 2 0 0 0-2 2v16a2 2 0 0 0 2 2h12a2 2 0 0 0 2-2V8z" />
    <polyline points="14 2 14 8 20 8" />
    <line x1="16" y1="13" x2="8" y2="13" />
    <line x1="16" y1="17" x2="8" y2="17" />
    <polyline points="10 9 9 9 8 9" />
  </symbol>

  <symbol id="icon-markets" viewBox="0 0 24 24">
    <polyline points="3 17 9 11 13 15 21 6" />
    <polyline points="14 6 21 6 21 13" />
  </symbol>

  <symbol id="icon-trending-up" viewBox="0 0 24 24">
    <polyline points="3 17 9 11 13 15 21 6" />
    <polyline points="14 6 21 6 21 13" />
  </symbol>

  <symbol id="icon-trending-down" viewBox="0 0 24 24">
    <polyline points="3 7 9 13 13 9 21 18" />
    <polyline points="14 18 21 18 21 11" />
  </symbol>

  <symbol id="icon-grid-dots" viewBox="0 0 24 24">
    <circle cx="5" cy="5" r="1.6" fill="currentColor" stroke="none" />
    <circle cx="12" cy="5" r="1.6" fill="currentColor" stroke="none" />
    <circle cx="19" cy="5" r="1.6" fill="currentColor" stroke="none" />
    <circle cx="5" cy="12" r="1.6" fill="currentColor" stroke="none" />
    <circle cx="12" cy="12" r="1.6" fill="currentColor" stroke="none" />
    <circle cx="19" cy="12" r="1.6" fill="currentColor" stroke="none" />
    <circle cx="5" cy="19" r="1.6" fill="currentColor" stroke="none" />
    <circle cx="12" cy="19" r="1.6" fill="currentColor" stroke="none" />
    <circle cx="19" cy="19" r="1.6" fill="currentColor" stroke="none" />
  </symbol>

  <symbol id="icon-car" viewBox="0 0 24 24">
    <path d="M5 11l1.5-4.5A2 2 0 0 1 8.4 5h7.2a2 2 0 0 1 1.9 1.5L19 11" />
    <rect x="3" y="11" width="18" height="6" rx="2" />
    <circle cx="7.5" cy="17" r="1.6" />
    <circle cx="16.5" cy="17" r="1.6" />
  </symbol>

  <symbol id="icon-medical" viewBox="0 0 24 24">
    <path d="M12 5v14M5 12h14" />
  </symbol>

  <symbol id="icon-bank" viewBox="0 0 24 24">
    <path d="M3 10l9-6 9 6" />
    <path d="M5 10v9M10 10v9M14 10v9M19 10v9" />
    <path d="M3 21h18" />
  </symbol>

  <symbol id="icon-settings" viewBox="0 0 24 24">
    <circle cx="12" cy="12" r="3" />
    <path d="M19.4 15a1.65 1.65 0 0 0 .33 1.82l.06.06a2 2 0 1 1-2.83 2.83l-.06-.06a1.65 1.65 0 0 0-1.82-.33 1.65 1.65 0 0 0-1 1.51V21a2 2 0 0 1-4 0v-.09a1.65 1.65 0 0 0-1-1.51 1.65 1.65 0 0 0-1.82.33l-.06.06a2 2 0 1 1-2.83-2.83l.06-.06a1.65 1.65 0 0 0 .33-1.82 1.65 1.65 0 0 0-1.51-1H3a2 2 0 0 1 0-4h.09a1.65 1.65 0 0 0 1.51-1 1.65 1.65 0 0 0-.33-1.82l-.06-.06a2 2 0 1 1 2.83-2.83l.06.06a1.65 1.65 0 0 0 1.82.33H9a1.65 1.65 0 0 0 1-1.51V3a2 2 0 0 1 4 0v.09a1.65 1.65 0 0 0 1 1.51 1.65 1.65 0 0 0 1.82-.33l.06-.06a2 2 0 1 1 2.83 2.83l-.06.06a1.65 1.65 0 0 0-.33 1.82V9a1.65 1.65 0 0 0 1.51 1H21a2 2 0 0 1 0 4h-.09a1.65 1.65 0 0 0-1.51 1z" />
  </symbol>

  <symbol id="icon-menu" viewBox="0 0 24 24">
    <line x1="3" y1="6" x2="21" y2="6" />
    <line x1="3" y1="12" x2="21" y2="12" />
    <line x1="3" y1="18" x2="21" y2="18" />
  </symbol>

  <symbol id="icon-x" viewBox="0 0 24 24">
    <line x1="18" y1="6" x2="6" y2="18" />
    <line x1="6" y1="6" x2="18" y2="18" />
  </symbol>
</svg>
